<svg xmlns="http://www.w3.org/2000/svg" version="1.1" xmlns:xlink="http://www.w3.org/1999/xlink" xmlns:svgjs="http://svgjs.dev/svgjs" width="1500" height="1500" viewBox="0 0 1500 1500"><rect width="1500" height="1500" fill="#000000"></rect><g transform="matrix(0.6666666666666666,0,0,0.6666666666666666,249.39393939393938,438.5856950067477)"><svg viewBox="0 0 396 247" data-background-color="#000000" preserveAspectRatio="xMidYMid meet" height="935" width="1500" xmlns="http://www.w3.org/2000/svg" xmlns:xlink="http://www.w3.org/1999/xlink"><g id="tight-bounds" transform="matrix(1,0,0,1,0.2400000000000091,-0.09999999999999432)"><svg viewBox="0 0 395.52 247.2" height="247.2" width="395.52"><rect width="395.52" height="247.2" fill="url(#cab407f8-f0e9-400e-ab95-364322502ab2)" mask="url(#5d1e9542-e9b1-460d-b882-10cfdaa6626a)" data-fill-palette-color="tertiary"></rect><g><svg></svg></g><g><svg viewBox="0 0 395.52 247.2" height="247.2" width="395.52"><g transform="matrix(1,0,0,1,146.8093333333333,37.08)"><svg viewBox="0 0 101.90133333333334 173.04" height="173.04" width="101.90133333333334"><g><svg viewBox="0 0 101.90133333333334 173.04" height="173.04" width="101.90133333333334"><g><svg viewBox="0 0 101.90133333333334 173.04" height="173.04" width="101.90133333333334"><g><svg viewBox="0 0 101.90133333333334 173.04" height="173.04" width="101.90133333333334"><g id="textblocktransform"><svg viewBox="0 0 101.90133333333334 173.04" height="173.04" width="101.90133333333334" id="textblock"><g><svg viewBox="0 0 101.90133333333334 173.04" height="173.04" width="101.90133333333334"><g transform="matrix(1,0,0,1,0,0)"><svg width="101.90133333333334" viewBox="2.25 -35.45 21.2 36.00000000000001" height="173.04" data-palette-color="url(#ea863deb-d844-4116-b486-f6f249b8e4d0)"></svg></g></svg></g></svg></g></svg></g></svg></g></svg></g></svg></g><g><path d="M0 247.2v-247.2h395.52v247.2zM379.915 231.595v-215.99h-364.31v215.99z" fill="url(#cab407f8-f0e9-400e-ab95-364322502ab2)" fill-rule="nonzero" stroke="none" stroke-width="1" stroke-linecap="butt" stroke-linejoin="miter" stroke-miterlimit="10" stroke-dasharray="" stroke-dashoffset="0" font-family="none" font-weight="none" font-size="none" text-anchor="none" style="mix-blend-mode: normal" data-fill-palette-color="tertiary"></path></g></svg></g><defs></defs><mask id="000f6972-7dbf-4d6b-adcb-2fe5a2773af7"><g id="SvgjsG2951"><svg viewBox="0 0 395.52 247.2" height="247.2" width="395.52"><g><svg></svg></g><g><svg viewBox="0 0 395.52 247.2" height="247.2" width="395.52"><g transform="matrix(1,0,0,1,146.8093333333333,37.08)"><svg viewBox="0 0 101.90133333333334 173.04" height="173.04" width="101.90133333333334"><g><svg viewBox="0 0 101.90133333333334 173.04" height="173.04" width="101.90133333333334"><g><svg viewBox="0 0 101.90133333333334 173.04" height="173.04" width="101.90133333333334"><g><svg viewBox="0 0 101.90133333333334 173.04" height="173.04" width="101.90133333333334"><g id="SvgjsG2950"><svg viewBox="0 0 101.90133333333334 173.04" height="173.04" width="101.90133333333334" id="SvgjsSvg2949"><g><svg viewBox="0 0 101.90133333333334 173.04" height="173.04" width="101.90133333333334"><g transform="matrix(1,0,0,1,0,0)"><svg width="101.90133333333334" viewBox="2.25 -35.45 21.2 36.00000000000001" height="173.04" data-palette-color="url(#ea863deb-d844-4116-b486-f6f249b8e4d0)"><path d="M12.7 0.55L12.7 0.55Q9.03 0.55 6.28-0.68 3.53-1.9 2.25-3.25L2.25-3.25 4.8-8.5Q5.33-7.83 6.46-6.98 7.6-6.13 9.11-5.49 10.63-4.85 12.25-4.85L12.25-4.85Q14.13-4.85 15.51-5.9 16.9-6.95 16.9-9L16.9-9Q16.9-11.03 15.46-12.21 14.03-13.4 11.55-14.9L11.55-14.9Q9.53-16.13 7.58-17.51 5.63-18.9 4.34-20.91 3.05-22.93 3.05-26L3.05-26Q3.05-30.13 5.69-32.79 8.33-35.45 13.35-35.45L13.35-35.45Q15.9-35.45 17.69-34.85 19.48-34.25 20.59-33.48 21.7-32.7 22.25-32.2L22.25-32.2 19.45-27.1Q19.1-27.6 18.28-28.33 17.45-29.05 16.25-29.6 15.05-30.15 13.6-30.15L13.6-30.15Q11.58-30.15 10.56-28.99 9.55-27.83 9.55-26.25L9.55-26.25Q9.55-24.23 11.04-22.95 12.53-21.68 14.65-20.4L14.65-20.4Q17-19 19-17.59 21-16.18 22.23-14.21 23.45-12.25 23.45-9.2L23.45-9.2Q23.45-4.63 20.58-2.04 17.7 0.55 12.7 0.55Z" opacity="1" transform="matrix(1,0,0,1,0,0)" fill="white" class="wordmark-text-0" id="SvgjsPath2948"></path></svg></g></svg></g></svg></g></svg></g></svg></g></svg></g></svg></g><g><path d="M0 247.2v-247.2h395.52v247.2zM379.915 231.595v-215.99h-364.31v215.99z" fill="black" fill-rule="nonzero" stroke="none" stroke-width="1" stroke-linecap="butt" stroke-linejoin="miter" stroke-miterlimit="10" stroke-dasharray="" stroke-dashoffset="0" font-family="none" font-weight="none" font-size="none" text-anchor="none" style="mix-blend-mode: normal"></path></g></svg></g><defs><mask></mask></defs></svg><rect width="395.52" height="247.2" fill="black" stroke="none" visibility="hidden"></rect></g></mask><linearGradient x1="0" x2="1" y1="0.578" y2="0.595" id="ea863deb-d844-4116-b486-f6f249b8e4d0"><stop stop-color="#6ee2f5" offset="0"></stop><stop stop-color="#6454f0" offset="1"></stop></linearGradient><rect width="395.52" height="247.2" fill="url(#ea863deb-d844-4116-b486-f6f249b8e4d0)" mask="url(#000f6972-7dbf-4d6b-adcb-2fe5a2773af7)" data-fill-palette-color="primary"></rect><mask id="5d1e9542-e9b1-460d-b882-10cfdaa6626a"><g id="SvgjsG2974"><svg viewBox="0 0 395.52 247.2" height="247.2" width="395.52"><g><svg></svg></g><g><svg viewBox="0 0 395.52 247.2" height="247.2" width="395.52"><g transform="matrix(1,0,0,1,146.8093333333333,37.08)"><svg viewBox="0 0 101.90133333333334 173.04" height="173.04" width="101.90133333333334"><g><svg viewBox="0 0 101.90133333333334 173.04" height="173.04" width="101.90133333333334"><g><svg viewBox="0 0 101.90133333333334 173.04" height="173.04" width="101.90133333333334"><g><svg viewBox="0 0 101.90133333333334 173.04" height="173.04" width="101.90133333333334"><g id="SvgjsG2973"><svg viewBox="0 0 101.90133333333334 173.04" height="173.04" width="101.90133333333334" id="SvgjsSvg2972"><g><svg viewBox="0 0 101.90133333333334 173.04" height="173.04" width="101.90133333333334"><g transform="matrix(1,0,0,1,0,0)"><svg width="101.90133333333334" viewBox="2.25 -35.45 21.2 36.00000000000001" height="173.04" data-palette-color="url(#ea863deb-d844-4116-b486-f6f249b8e4d0)"></svg></g></svg></g></svg></g></svg></g></svg></g></svg></g></svg></g><g><path d="M0 247.2v-247.2h395.52v247.2zM379.915 231.595v-215.99h-364.31v215.99z" fill="white" fill-rule="nonzero" stroke="none" stroke-width="1" stroke-linecap="butt" stroke-linejoin="miter" stroke-miterlimit="10" stroke-dasharray="" stroke-dashoffset="0" font-family="none" font-weight="none" font-size="none" text-anchor="none" style="mix-blend-mode: normal"></path></g></svg></g><defs><mask></mask></defs><mask><g id="SvgjsG2971"><svg viewBox="0 0 395.52 247.2" height="247.2" width="395.52"><g><svg></svg></g><g><svg viewBox="0 0 395.52 247.2" height="247.2" width="395.52"><g transform="matrix(1,0,0,1,146.8093333333333,37.08)"><svg viewBox="0 0 101.90133333333334 173.04" height="173.04" width="101.90133333333334"><g><svg viewBox="0 0 101.90133333333334 173.04" height="173.04" width="101.90133333333334"><g><svg viewBox="0 0 101.90133333333334 173.04" height="173.04" width="101.90133333333334"><g><svg viewBox="0 0 101.90133333333334 173.04" height="173.04" width="101.90133333333334"><g id="SvgjsG2970"><svg viewBox="0 0 101.90133333333334 173.04" height="173.04" width="101.90133333333334" id="SvgjsSvg2969"><g><svg viewBox="0 0 101.90133333333334 173.04" height="173.04" width="101.90133333333334"><g transform="matrix(1,0,0,1,0,0)"><svg width="101.90133333333334" viewBox="2.25 -35.45 21.2 36.00000000000001" height="173.04" data-palette-color="url(#ea863deb-d844-4116-b486-f6f249b8e4d0)"><path d="M12.7 0.55L12.7 0.55Q9.03 0.55 6.28-0.68 3.53-1.9 2.25-3.25L2.25-3.25 4.8-8.5Q5.33-7.83 6.46-6.98 7.6-6.13 9.11-5.49 10.63-4.85 12.25-4.85L12.25-4.85Q14.13-4.85 15.51-5.9 16.9-6.95 16.9-9L16.9-9Q16.9-11.03 15.46-12.21 14.03-13.4 11.55-14.9L11.55-14.9Q9.53-16.13 7.58-17.51 5.63-18.9 4.34-20.91 3.05-22.93 3.05-26L3.05-26Q3.05-30.13 5.69-32.79 8.33-35.45 13.35-35.45L13.35-35.45Q15.9-35.45 17.69-34.85 19.48-34.25 20.59-33.48 21.7-32.7 22.25-32.2L22.25-32.2 19.45-27.1Q19.1-27.6 18.28-28.33 17.45-29.05 16.25-29.6 15.05-30.15 13.6-30.15L13.6-30.15Q11.58-30.15 10.56-28.99 9.55-27.83 9.55-26.25L9.55-26.25Q9.55-24.23 11.04-22.95 12.53-21.68 14.65-20.4L14.65-20.4Q17-19 19-17.59 21-16.18 22.23-14.21 23.45-12.25 23.45-9.2L23.45-9.2Q23.45-4.63 20.58-2.04 17.7 0.55 12.7 0.55Z" opacity="1" transform="matrix(1,0,0,1,0,0)" fill="black" class="wordmark-text-0" id="SvgjsPath2968"></path></svg></g></svg></g></svg></g></svg></g></svg></g></svg></g></svg></g><g><path d="M0 247.2v-247.2h395.52v247.2zM379.915 231.595v-215.99h-364.31v215.99z" fill="black" fill-rule="nonzero" stroke="none" stroke-width="1" stroke-linecap="butt" stroke-linejoin="miter" stroke-miterlimit="10" stroke-dasharray="" stroke-dashoffset="0" font-family="none" font-weight="none" font-size="none" text-anchor="none" style="mix-blend-mode: normal"></path></g></svg></g><defs><mask></mask></defs></svg><rect width="395.52" height="247.2" fill="black" stroke="none" visibility="hidden"></rect></g></mask></svg><rect width="395.52" height="247.2" fill="black" stroke="none" visibility="hidden"></rect></g></mask><linearGradient x1="0" x2="1" y1="0.578" y2="0.595" id="cab407f8-f0e9-400e-ab95-364322502ab2"><stop stop-color="#6ee2f5" offset="0"></stop><stop stop-color="#6454f0" offset="1"></stop></linearGradient></svg><rect width="395.52" height="247.2" fill="none" stroke="none" visibility="hidden"></rect></g></svg></g></svg>